# xmcd CD database file
#
# Track frame offsets:
#	150
#	14932
#	37179
#	50702
#	65367
#	85686
#	110072
#	127305
#	150706
#	169747
#	185207
#	198561
#	213647
#	229961
#	253700
#	269561
#	287341
#	300190
#	318867
#	330170
#
# Disc length: 4624 seconds
#
# Revision: 1
# Processed by: cddbd v1.5.2PL0 Copyright (c) Steve Scherf et al.
# Submitted via: CDex 1.51
#
DISCID=31120e14
DTITLE=Arte (Compilation Soul) - CD3 - Summer Of Soul
DYEAR=2013
DGENRE=Soul
TTITLE0=Isaac Hayes - Theme From Shaft
TTITLE1=Ike and Tina Turner - Proud Mary
TTITLE2=The Jackson 5 - I Want You Back
TTITLE3=Al Green - Let's Stay Together
TTITLE4=Barry White - Can't Get Enough Of Your Love Babe
TTITLE5=Diana Ross - I'm Coming Out
TTITLE6=Isaac Hayes - Across The 110 th Street
TTITLE7=Gil Scott - Heron and Brian Jackson-The Bottle
TTITLE8=Marvin Gaye - Got To Give It Up
TTITLE9=The Commodores - Sweet Love
TTITLE10=Marlena Shaw - California Soul
TTITLE11=Rufus and Chaka Khan - Sweet Thing
TTITLE12=Gene Chandler - Get Down
TTITLE13=Dona Summer - Hot Stuff
TTITLE14=Kool and The Gang - Ladies Night
TTITLE15=PJ Morton Feat. Stevie Wonder - Only One
TTITLE16=Amy Winehouse - Our Day Will Come
TTITLE17=Alice Russell - Crazy
TTITLE18=Vigon Bamy Jay (Les Soul Men) - Ain't No Sunshine
TTITLE19=Ben L'Oncle Soul - Soulman
EXTD=YEAR: 2013
EXTT0=
EXTT1=
EXTT2=
EXTT3=
EXTT4=
EXTT5=
EXTT6=
EXTT7=
EXTT8=
EXTT9=
EXTT10=
EXTT11=
EXTT12=
EXTT13=
EXTT14=
EXTT15=
EXTT16=
EXTT17=
EXTT18=
EXTT19=
PLAYORDER=
